<svg xmlns="http://www.w3.org/2000/svg" xmlns:xlink="http://www.w3.org/1999/xlink" width="36" height="36" viewBox="0 0 36 36">
  <defs>
    <clipPath id="clip-Web_1920_1">
      <rect width="36" height="36"/>
    </clipPath>
  </defs>
  <g id="Web_1920_1" data-name="Web 1920 – 1" clip-path="url(#clip-Web_1920_1)">
    <rect width="36" height="36" fill="#fff"/>
    <g id="Circular_2x" data-name="Circular@2x" transform="translate(-0.316 511.875)">
      <path id="Path_1" data-name="Path 1" d="M87.446-511.806c-.345.1-.4.211-.366.774.021.457.042.521.253.7.253.225.493.253.943.12a.692.692,0,0,0,.549-.739.85.85,0,0,0-.436-.858A1.651,1.651,0,0,0,87.446-511.806Zm.915.3c.162.12.239.69.106.8-.274.211-.387.176-.654-.2a1.431,1.431,0,0,1-.253-.535c0-.141.035-.155.338-.155A1.029,1.029,0,0,1,88.361-511.511Zm-.577.873c.056.063.042.091-.028.091-.19,0-.338-.176-.387-.457l-.042-.281.2.281C87.629-510.849,87.749-510.681,87.784-510.638Z" transform="translate(-80.651)"/>
      <path id="Path_2" data-name="Path 2" d="M191.284-504.692a1.831,1.831,0,0,0-.858.739c-.106.317-.035.429.394.64a1.179,1.179,0,0,0,1.126.063c.4-.26.591-1.084.31-1.337A1.269,1.269,0,0,0,191.284-504.692Zm.69.281c0,.091-.422.422-.591.464a1.611,1.611,0,0,1-.422.014l-.26-.021.338-.26a1.587,1.587,0,0,1,.514-.281C191.763-504.524,191.974-504.481,191.974-504.411Zm.042.668c-.155.232-.387.281-.83.169l-.373-.091.373-.049a1.149,1.149,0,0,0,.633-.26c.239-.19.26-.2.281-.07A.537.537,0,0,1,192.016-503.743Z" transform="translate(-176.693 -6.628)"/>
      <path id="Path_3" data-name="Path 3" d="M321.46-495.747a3.143,3.143,0,0,0-.422.281c-.113.084-.408.3-.661.457-.57.38-.753.725-1.013,1.893-.218.992-.218,1.006-.042,1.182.127.127.2.134.725.1a1.326,1.326,0,0,1,1.069.218c.542.3.908.338,1.2.148.443-.289.528-.8.359-2.188a5.577,5.577,0,0,0-.5-2.076C322.016-495.9,321.756-495.909,321.46-495.747Zm.521.486a17.931,17.931,0,0,1,.408,2.449,1.338,1.338,0,0,1-.091.809c-.183.352-.394.352-1.027.007a2.113,2.113,0,0,0-.739-.288h-.225v-.436a2.955,2.955,0,0,1,1.161-2.688C321.791-495.578,321.9-495.55,321.981-495.262Zm-1.759,1.175a5.813,5.813,0,0,0-.239,1.2c-.042.542-.063.605-.19.605s-.134-.035-.091-.5a4.481,4.481,0,0,1,.457-1.675c.084-.12.183-.218.211-.218A1.757,1.757,0,0,1,320.222-494.087Z" transform="translate(-296.441 -14.884)"/>
      <path id="Path_4" data-name="Path 4" d="M234.345-490.657c-.232.07-1.084.338-1.9.6-1.808.563-2.245.76-2.273,1.013s.232.542.872.9c.31.169.8.464,1.112.661s.683.4.844.478a7.717,7.717,0,0,0,1.991.486c.31,0,.387-.028.507-.183.183-.232.19-.521.035-1.513a13.5,13.5,0,0,1-.127-1.555,2.625,2.625,0,0,0-.106-.929C235.183-490.84,234.88-490.833,234.345-490.657Zm.746.69c.028.253.07.879.1,1.393l.049.943-.169-.049a23.023,23.023,0,0,1-3.736-1.661,19.649,19.649,0,0,1,3.61-1.1C235.021-490.425,235.063-490.3,235.091-489.968Zm-3.581.992a31.977,31.977,0,0,0,3.455,1.682c.267.084.345.253.155.324a4.321,4.321,0,0,1-.971-.141,4.069,4.069,0,0,1-1.351-.478c-.267-.162-.837-.493-1.267-.739-1.02-.591-1.034-.605-.732-.788a1.8,1.8,0,0,1,.26-.148C231.074-489.264,231.278-489.13,231.51-488.976Z" transform="translate(-213.682 -19.594)"/>
      <path id="Path_5" data-name="Path 5" d="M33.483-485.707a1.865,1.865,0,0,0-.415.753l-.162.493-.556.331a5.734,5.734,0,0,1-.6.338,4.587,4.587,0,0,1-.021-.809,5.2,5.2,0,0,0-.021-.936c-.084-.225-.162.063-.218.8l-.049.7-.457.457c-.591.6-.668.781-.577,1.365.1.605.021.8-.331.851-.148.028-.584.141-.971.253a12.637,12.637,0,0,1-1.935.352,11.693,11.693,0,0,0-2.322.471,4.555,4.555,0,0,1-1.759.324,1.989,1.989,0,0,1-1.126-.225,2.424,2.424,0,0,0-.57-.225,1.784,1.784,0,0,1-.422-.134,2.921,2.921,0,0,0-.654-.19,1.03,1.03,0,0,1-.64-.317,1.357,1.357,0,0,0-1.175-.415,1.329,1.329,0,0,1-.816-.183.938.938,0,0,0-.76-.148,1.229,1.229,0,0,1-.816-.127,2.514,2.514,0,0,0-1.323-.176,2.579,2.579,0,0,1-1.921-.514,2.3,2.3,0,0,0-.7-.3,1.363,1.363,0,0,1-.7-.429,2.418,2.418,0,0,0-1.365-.725,4.132,4.132,0,0,0-2.92.521,5.1,5.1,0,0,1-2.005.661,3.793,3.793,0,0,0-1.668.528,4.264,4.264,0,0,0-1.407,1.295,5.409,5.409,0,0,1-.767.872,2.3,2.3,0,0,0-.985,1.7c-.063.549-.063.633.07.929a1.118,1.118,0,0,0,.493.535l.352.218v.788a2.934,2.934,0,0,0,.239,1.576c.162.155.3.014.415-.429l.091-.366.035.387c.042.457.183.514.359.148l.113-.246.049.352c.091.647.274.908.493.69a.945.945,0,0,0,.155-.415c.056-.4.134-.352.19.106a1.805,1.805,0,0,0,.084.422c.091.148.317-.077.408-.4l.1-.331.049.274c.07.359.26.675.387.654.106-.021.169-.113.317-.478l.1-.246.007.26c.007.366.155.345.38-.07l.19-.331v.422c0,.521.12.774.352.774.141,0,.211-.07.352-.352.127-.26.176-.317.2-.211.049.317.077.345.225.211A.506.506,0,0,0,6.7-473.9c0-.092.042-.035.113.148.084.239.141.3.267.3a.4.4,0,0,0,.274-.148c.1-.148.1-.148.127.049.035.3.246.31.373.014.091-.211.1-.218.106-.056.007.373.1.5.556.8a1.573,1.573,0,0,1,.83,1.259l.035.38-.767-.035a5.062,5.062,0,0,0-3.4,1.091c-.739.528-.936.732-.9.95.035.267.394.239,2.139-.183.887-.211,1.8-.415,2.033-.464s.5-.091.591-.113c.148-.028.162-.014.12.127-.021.091-.077.38-.113.654-.141.971-.134.936-.274.9a.355.355,0,0,0-.359.3c0,.084-.042.077-.211-.042-.3-.218-.443-.141-.408.211l.021.274-.2-.19c-.267-.253-.429-.155-.457.3l-.021.331-.2-.218c-.274-.3-.38-.246-.408.176l-.021.338-.211-.225c-.225-.246-.338-.253-.45-.028-.077.148-.077.148-.274-.028a.465.465,0,0,0-.281-.141c-.042.014-.091.183-.113.373l-.035.338-.127-.19a.383.383,0,0,0-.26-.19c-.134,0-.176.091-.225.492-.028.176-.028.176-.148-.056-.176-.317-.38-.3-.443.042l-.049.26-.084-.239c-.042-.134-.12-.26-.169-.274-.12-.042-.338.176-.394.387l-.042.183-.148-.232c-.134-.232-.148-.232-.239-.106a.65.65,0,0,0-.106.31c-.007.162-.021.155-.12-.084-.141-.352-.345-.331-.542.056a2.333,2.333,0,0,0-.141,1.126A8.063,8.063,0,0,0,2-463.909l.049.218-.422.077c-.542.1-.922.281-1.027.5-.176.359.127.661.809.8a.927.927,0,0,1,.753.486,1.265,1.265,0,0,0,.542.464,15.683,15.683,0,0,0,2.73.274,8.638,8.638,0,0,0,1.091-.281c.429-.134,1.077-.31,1.442-.4a5.94,5.94,0,0,0,1.055-.352,10.343,10.343,0,0,1,1.372-.5,4.225,4.225,0,0,1,1.724-.289c2.181.021,3.307.049,3.307.077,0,.077-.753,2.09-.992,2.646a3.819,3.819,0,0,0-.274.76c0,.281.218.2.7-.239a8.881,8.881,0,0,1,1.245-1.048.532.532,0,0,1,.2.127,16.554,16.554,0,0,0,1.794,1.1c.7.366.746.493.661,1.724l-.056.872-.317.239c-.176.134-.556.457-.844.725a2.407,2.407,0,0,1-.985.64c-.415.134-.915.5-.823.591.021.021.162-.042.317-.148a2.272,2.272,0,0,1,.521-.246,2.434,2.434,0,0,0,.352-.105c.345-.141-.021.352-.549.746-.211.155-.38.324-.38.38s.169-.014.485-.246a3.2,3.2,0,0,0,.88-.95,3.144,3.144,0,0,1,1.084-1.084c.2-.106.2-.021-.028.394a1.174,1.174,0,0,0-.134.9c.021.31.077.76.113,1a1.042,1.042,0,0,1-.218.985c-.134.211-.035.288.148.12.373-.338.394-.514.2-1.689a1.356,1.356,0,0,1,.1-1.055,38.011,38.011,0,0,1,1.822-3.532,11.4,11.4,0,0,1,2.449-.858,6.092,6.092,0,0,1,1.471.7c.753.443.647.471,1.7-.528a11.2,11.2,0,0,1,1.245-1.077,3.34,3.34,0,0,0,1.217-1.084c.31-.394.471-.549.584-.549a5.326,5.326,0,0,1,.992.394,20.441,20.441,0,0,0,2,.908,1.931,1.931,0,0,1,.422.225,3.281,3.281,0,0,0,.739.31,1.755,1.755,0,0,1,1.281.887,5.388,5.388,0,0,1,.366.915c.162.549.288.718.288.387a3.569,3.569,0,0,0-.429-1.26l-.148-.239.26.049c.38.07.281-.035-.457-.471-.57-.338-.619-.38-.478-.436a4.5,4.5,0,0,1,.887-.056c.591.007.718-.014.718-.1a.1.1,0,0,0-.084-.106c-.049,0-.288-.035-.535-.07a1.915,1.915,0,0,0-.83.042,1.648,1.648,0,0,1-1.267-.07,2.248,2.248,0,0,1-1.013-1.1,1.541,1.541,0,0,1-.113-1.52c.218-.521.225-.661.056-.816a7.51,7.51,0,0,0-1.175-.471,4.807,4.807,0,0,1-1.97-1.006.872.872,0,0,1-.106-.408,2.546,2.546,0,0,1,.464-1.337,8.493,8.493,0,0,0,.57-.683,3.118,3.118,0,0,1,.577-.612c.324-.162,3.525-1.344,3.905-1.435a3.037,3.037,0,0,0,.647-.26,2.554,2.554,0,0,1,.732-.246,2.55,2.55,0,0,0,.661-.183c.274-.141.274-.141.225-.218-.021-.035-.19-.028-.408.028a3.169,3.169,0,0,1-.7.091c-.317-.014-.338-.028-.338-.211a1.24,1.24,0,0,1,.324-.788c.211-.246.176-.324-.077-.162a1.128,1.128,0,0,0-.457.746.975.975,0,0,1-.141.408l-.148.239-.471-.049a3.813,3.813,0,0,1-1.583-.408.957.957,0,0,1-.633-.943c-.077-.711-.331-1.013-1.316-1.6a8.513,8.513,0,0,1-2.1-1.9L28-476.546l.155-.69a7.231,7.231,0,0,1,2.1-3.476,3.942,3.942,0,0,0,.612-.8,2.068,2.068,0,0,0-.035-.661,1.567,1.567,0,0,1-.014-.654c.07-.183.422-.415,1.133-.725.253-.113.661-.324.915-.464a4.956,4.956,0,0,1,.7-.352c.88-.288,1.119-.549.331-.359-.239.056-.521.12-.626.141l-.19.035.169-.443a2.561,2.561,0,0,1,.387-.661.941.941,0,0,0,.211-.267C33.856-486.031,33.73-485.96,33.483-485.707ZM10.4-483.413a3.517,3.517,0,0,1,.746.521,2.222,2.222,0,0,0,.767.471,5.576,5.576,0,0,1,.872.387,3.3,3.3,0,0,0,2.005.45,2.469,2.469,0,0,1,1.091.127c.528.3.507.3.922.2a.732.732,0,0,1,.76.106,1.328,1.328,0,0,0,.908.2c.535-.007.556-.007.844.246l.3.26-.457.007a1.224,1.224,0,0,0-1.034.408c-.1.12-.169.155-.239.105a1.326,1.326,0,0,0-.471-.063.635.635,0,0,0-.6.218c-.2.2-.232.211-.485.141a1.009,1.009,0,0,0-.9.169c-.077.091-.12.07-.331-.176a.913.913,0,0,0-.964-.352c-.176.063-.183.056-.183-.176a1.089,1.089,0,0,0-.739-.851,1.281,1.281,0,0,0-.929.014c-.12.035-.162.014-.162-.063,0-.162-.45-.528-.774-.619a1.157,1.157,0,0,0-.894.12c-.042.021-.1-.028-.127-.106a1.238,1.238,0,0,0-.8-.429.758.758,0,0,0-.711.739c0,.127-.028.155-.134.127-.521-.134-1.288,1.013-1.3,1.949a1.512,1.512,0,0,0,1.182,1.7,6.453,6.453,0,0,1,1.027.542,3.959,3.959,0,0,0,1.288.711,2.241,2.241,0,0,1,1.267.922c.317.394.324.45.049.31a1.006,1.006,0,0,0-.366-.106c-.246,0-.38-.113-.288-.225s.141-.422.056-.45c-.035-.014-.162.106-.281.253a1,1,0,0,1-.267.281,1.4,1.4,0,0,1-.324-.176,2.288,2.288,0,0,0-.478-.218,5.248,5.248,0,0,1-.69-.281,4.626,4.626,0,0,0-.683-.274c-.113-.028-.2-.091-.2-.141,0-.084-.493-.331-.858-.422-.183-.049-.19-.07-.176-.373.007-.253-.014-.331-.1-.352s-.141.056-.2.2-.106.211-.19.176a1.636,1.636,0,0,0-.4-.042c-.457,0-.528-.084-.317-.345.38-.443.521-1.14.246-1.189-.169-.035-.345.127-.725.668l-.31.429-.373-.176a2.675,2.675,0,0,0-.626-.218c-.3-.035-.324-.1-.127-.422.169-.267.176-.366.042-.366s-.45.38-.507.6c-.049.19-.3.26-.619.169a2.321,2.321,0,0,0-.535-.063c-.345,0-.915.225-.915.359,0,.049.049.056.12.028a1.861,1.861,0,0,1,1.252-.021.863.863,0,0,1-.19.26l-.211.239-.908-.12a4.5,4.5,0,0,0-.971-.077c-.155.091-.31-.317-.3-.76.021-.64.183-.929.872-1.555a6.2,6.2,0,0,0,.83-.9,4.127,4.127,0,0,1,1.506-1.295,3.565,3.565,0,0,1,1.231-.345,5.891,5.891,0,0,0,2.322-.774,6.131,6.131,0,0,1,1.161-.464A3.416,3.416,0,0,1,10.4-483.413Zm-.387,1.865a.675.675,0,0,1,.2.345c0,.127-.042.134-.471.106-.6-.042-.654-.056-.654-.211C9.089-481.767,9.645-481.907,10.011-481.549Zm1.471.26c.246.169.352.31.352.5v.155l-.239-.141a1.921,1.921,0,0,0-.633-.183c-.429-.042-.5-.148-.239-.331A.721.721,0,0,1,11.481-481.288Zm18.217.57c-.211.225-.45.5-.542.612-.225.3-.57.387-1.478.394h-.8l-.781.4a2.545,2.545,0,0,1-1.351.429,2.257,2.257,0,0,1-1.6-.408l-.239-.2.387-.007a5.82,5.82,0,0,0,1.055-.176,17.007,17.007,0,0,1,2.927-.619,5.073,5.073,0,0,0,1.478-.331c.528-.225,1.224-.485,1.288-.493A3.017,3.017,0,0,1,29.7-480.718Zm-16.387.07c.288.2.359.324.324.577-.049.31-.127.359-.633.359-.387,0-.422-.014-.647-.26-.288-.31-.3-.457-.056-.647A1.039,1.039,0,0,1,13.311-480.648Zm7.662.57a1.162,1.162,0,0,1,.556,1.119,1.1,1.1,0,0,1-.127.471c-.077.1-.12.084-.359-.127a3.371,3.371,0,0,0-.478-.359c-.169-.084-.218-.155-.218-.31a1.516,1.516,0,0,0-.169-.521c-.155-.288-.162-.324-.056-.352A1.293,1.293,0,0,1,20.973-480.078Zm-1.478.127a1.7,1.7,0,0,1,.429.767c0,.042-.211.077-.507.091s-.626.028-.76.049c-.246.042-.253.035-.331-.26-.077-.274-.07-.317.07-.464A.97.97,0,0,1,19.5-479.951Zm-4.749.429a.859.859,0,0,1,.218.788c-.042.141-.056.141-.3.035-.359-.148-.485-.281-.535-.563-.028-.134-.077-.239-.12-.239-.113,0,.007-.148.169-.2C14.38-479.782,14.542-479.726,14.746-479.522Zm7.874.359c.176.183.19.232.12.366l-.084.155-.19-.183a.657.657,0,0,0-.3-.183c-.1,0-.267-.443-.267-.7C21.895-479.8,22.317-479.487,22.619-479.163Zm-4.925-.4a.386.386,0,0,1,.26.394c0,.127-.063.169-.3.232-.169.042-.352.091-.415.113s-.148-.056-.232-.225c-.12-.253-.113-.26.035-.422A.509.509,0,0,1,17.694-479.564Zm-1.14.478a.735.735,0,0,1,.2.3c0,.056-.141.141-.317.19a1.041,1.041,0,0,0-.478.288l-.155.19-.26-.141c-.148-.07-.267-.169-.267-.218a1.708,1.708,0,0,1,.366-.661A.646.646,0,0,1,16.554-479.086Zm5.833.964c0,.169-.176.591-.246.591a1.506,1.506,0,0,1-.267-.26l-.239-.26.176-.345.183-.345.2.218A.786.786,0,0,1,22.387-478.122Zm-7.043.281a.483.483,0,0,1,.218.478.959.959,0,0,1-.035.338,1.6,1.6,0,0,1-.732-.127,1.041,1.041,0,0,1-.1-.387c-.042-.289-.028-.338.113-.4C15.041-478.052,15.112-478.037,15.344-477.84Zm-10.322.331c.394.155.4.155.281.31s-.127.155-.858.056c-.408-.056-.8-.106-.865-.106-.169,0-.091-.12.19-.288A1.467,1.467,0,0,1,5.022-477.51Zm14.945.521a1.453,1.453,0,0,1,.4.317c.176.232.07.4-.394.661a1.208,1.208,0,0,1-.851.155,1.343,1.343,0,0,1-1.274-.76L17.6-477l.162-.042c.345-.1.38-.077.352.2-.021.19.007.3.091.366.106.084.134.077.253-.07a1.769,1.769,0,0,0,.211-.415l.077-.239.478.035A2.151,2.151,0,0,1,19.967-476.989Zm2.519-.077a.671.671,0,0,1-.239.8c-.12.063-.127.049-.091-.338C22.2-477.109,22.373-477.355,22.486-477.066Zm-15.663.141c.394.063.183.19-.225.141-.507-.07-.683-.12-.64-.183S6.288-477,6.823-476.926Zm-4.545.281a1.008,1.008,0,0,1-.19.415,3.789,3.789,0,0,0-.324.7.765.765,0,0,1-.141.317,1.175,1.175,0,0,1-.091-.478c-.028-.26-.063-.605-.077-.774l-.035-.3.408.049A2.8,2.8,0,0,1,2.278-476.644Zm1.02.211a2.652,2.652,0,0,1,.317.07,1.662,1.662,0,0,1-.218.577,6.512,6.512,0,0,0-.366.894c-.091.345-.1.345-.141.141a8.3,8.3,0,0,1-.056-1.013c-.007-.661.007-.788.091-.76A3.188,3.188,0,0,0,3.3-476.433Zm12.574.07a.677.677,0,0,1,.049.647c-.035.063-.127.077-.26.042-.549-.127-.711-.507-.288-.69C15.668-476.5,15.745-476.5,15.872-476.363Zm7.346.317a1,1,0,0,0,.436.274c.345.091.394.169.183.274-.415.225-.535.8-.324,1.555.077.288.183.746.239,1.013a1.053,1.053,0,0,0,.239.612.4.4,0,0,1,.155.26c0,.464.253.493.3.028a1.737,1.737,0,0,1,.288-.95c.134-.183.148-.3.148-1.133v-.936l.2.063c.169.063.19.106.19.394a4.463,4.463,0,0,1-.26,1.238c-.035.113-.014.12.2.077a1.418,1.418,0,0,0,.436-.19l.19-.134v.239a2.171,2.171,0,0,1-.774,1.485c-.858.943-.872.992-.9,2.723l-.028,1.456-.922.436a21.5,21.5,0,0,1-5.467,1.794,4.879,4.879,0,0,1-2.1.162c-.563-.049-.816-.1-.725-.134.267-.1.4-.591.211-.753a.394.394,0,0,0-.584.014.4.4,0,0,0,0,.647.658.658,0,0,1,.176.239,1.124,1.124,0,0,0,.478.113l.471.056-.858.049a21.422,21.422,0,0,0-6.319,1.457,12.985,12.985,0,0,1-1.815.471c-1.048.19-1.485.2-.894.035.176-.056.668-.253,1.091-.443s.978-.422,1.224-.514c.408-.155.464-.162.57-.063.162.148.211.134.211-.056,0-.141.141-.232.971-.626.528-.26,1.154-.535,1.379-.619a1.831,1.831,0,0,0,.493-.239.9.9,0,0,1,.345-.183c.246-.077.281-.07.38.063.127.183.232.134.232-.12,0-.162.056-.211.394-.359.457-.2,1.084-.739,1.084-.929,0-.07.042-.134.1-.134a2.78,2.78,0,0,0,.563-.218c.331-.155.464-.253.464-.352,0-.183-.113-.169-.865.077-.359.113-.732.225-.83.239a2.248,2.248,0,0,0-.605.352,4.048,4.048,0,0,1-.675.4c-.239.084-.26.077-.394-.084l-.148-.169.338-.3a6.19,6.19,0,0,1,2.266-1.1,13.6,13.6,0,0,1,1.583-.253,6.272,6.272,0,0,0,2.329-.549,6.253,6.253,0,0,1,.809-.324c.471-.134.549-.211.507-.514-.028-.183-.084-.246-.31-.331a8.244,8.244,0,0,0-1.639-.324,1.807,1.807,0,0,1-1.1-.507,3.28,3.28,0,0,0-1.71-.76,3.865,3.865,0,0,1-.858-.26,6.155,6.155,0,0,1-.668-.781,3.456,3.456,0,0,0-1.14-1.077,6.864,6.864,0,0,0-.7-.415c-.028,0-.056-.049-.056-.113,0-.338,1.442.324,2.2,1a3.063,3.063,0,0,0,1.632.851,1.222,1.222,0,0,0,.887-.225c.169-.1.176-.091.211.084a.481.481,0,0,0,.218.3.48.48,0,0,0,.668-.331l.07-.225.127.281a1.392,1.392,0,0,0,1.97.542.588.588,0,0,1,.507-.134c.246.021.31,0,.408-.134a.689.689,0,0,0,.113-.338c0-.155.007-.162.127-.063.239.211.422.218.619.021.155-.155.176-.232.155-.549-.014-.3,0-.359.084-.338a.966.966,0,0,0,.767-.091.857.857,0,0,0,.218-.774.17.17,0,0,1,.084-.246.965.965,0,0,0,.31-.866.819.819,0,0,1,.035-.429c.084-.148.091-.148.162-.021A3.623,3.623,0,0,0,23.218-476.046Zm-18.2-.288.267.077-.239.471c-.127.26-.324.711-.436,1l-.2.521-.084-.38a7.65,7.65,0,0,1-.134-1.006c-.042-.5-.028-.64.049-.69A1.211,1.211,0,0,1,5.022-476.335Zm1.414.493c.281,0,.31.035.155.239a8.712,8.712,0,0,0-.436.985l-.338.851-.042-.317c-.021-.176-.063-.683-.091-1.133l-.042-.823.267.1A2.254,2.254,0,0,0,6.436-475.842Zm16.021.063c0,.183-.267.5-.429.5s-.155-.021-.091-.338c.035-.169.091-.225.232-.246.1-.014.2-.035.239-.042S22.458-475.856,22.458-475.779Zm-14.544.3c.113.021.106.056-.1.338a7.6,7.6,0,0,0-.457.725l-.218.408L7.1-474.4a4.614,4.614,0,0,1,.056-1.21c.021-.063.1-.063.331.014C7.653-475.54,7.843-475.49,7.914-475.476ZM9-474.963c.218.106.232.127.127.239-.056.063-.267.387-.471.711l-.359.6.042-.809a9.641,9.641,0,0,1,.084-.971c.049-.162.049-.162.2-.028A2.1,2.1,0,0,0,9-474.963Zm7.191.106c0,.246-.063.3-.345.239-.246-.049-.31-.288-.091-.352a1.285,1.285,0,0,0,.225-.1C16.139-475.146,16.2-475.089,16.2-474.857Zm5.868.113a.415.415,0,0,1-.345.521c-.169,0-.169-.007-.077-.232a3.287,3.287,0,0,0,.141-.352C21.838-474.991,22.014-474.956,22.064-474.745Zm-12.123.373.394.2-.415.619-.436.654a4.5,4.5,0,0,1-.021-.823,4.96,4.96,0,0,1,.049-.851A3.851,3.851,0,0,1,9.94-474.372Zm6.382.373a.362.362,0,0,1-.014.471c-.113.091-.141.063-.211-.225S16.146-474.175,16.322-474Zm-5.27.338.239.2-.373.408c-.211.225-.394.422-.408.443a3.907,3.907,0,0,1,.127-1.006c.042-.141.1-.26.127-.26A1.692,1.692,0,0,1,11.052-473.661Zm5.812-.07c.021.035.007.07-.028.07a.077.077,0,0,1-.077-.07c0-.042.014-.07.028-.07S16.843-473.774,16.864-473.731Zm4.158.394c-.049.127-.324.134-.324,0a.358.358,0,0,1,.162-.2c.134-.091.155-.091.176,0A.4.4,0,0,1,21.022-473.337Zm-4.011.056a.322.322,0,0,1-.288.394c-.1,0-.176-.014-.176-.028a.831.831,0,0,0-.042-.134c-.049-.127.155-.331.331-.331A.19.19,0,0,1,17.012-473.281Zm3.124.317a.211.211,0,0,1-.338.155c-.091-.049-.07-.077.1-.169C20.15-473.119,20.136-473.119,20.136-472.964Zm7.332.4a1.5,1.5,0,0,1-.014,1.548,4.486,4.486,0,0,1-.352.591l-.134.176L27-470.53c.07-.528.246-1.548.281-1.661a.219.219,0,0,0-.077-.2c-.127-.106-.148-.521-.014-.478A1.3,1.3,0,0,1,27.467-472.563ZM12.9-472.12c.183.169.317.338.3.366a4.434,4.434,0,0,0,.113.76,7.2,7.2,0,0,1,.141.957c0,.225.014.253.106.176.134-.113.134-.535,0-1.119-.12-.486-.1-.612.042-.345.1.183.113.267.162,1.182.021.471.056.668.12.668.148,0,.2-.387.134-.88-.091-.612-.091-.605.091-.443a4.432,4.432,0,0,0,1.112.647,3.063,3.063,0,0,1,.514.246l.274.162-.591.084a9.822,9.822,0,0,0-2,.493l-.281.127V-470.1c-.007-1.027-.014-1.077-.2-1.449-.113-.211-.324-.577-.485-.809C12.135-472.824,12.178-472.8,12.9-472.12Zm-.823,1.611c-.035.324-.07.429-.127.38a6.545,6.545,0,0,0-1.632-.478l-.422-.049.429-.091c.7-.141,1.675-.725,1.731-1.041A5.472,5.472,0,0,1,12.079-470.509Zm-2.92-.127c.134.042.084.056-.218.063a9.781,9.781,0,0,0-2.463.486c-1.154.359-1.442.492-1.421.69.014.127-.035.162-.232.2a.819.819,0,0,1-.281.014,5.493,5.493,0,0,1,1.421-1.006,4.789,4.789,0,0,1,2.28-.507A5.574,5.574,0,0,1,9.159-470.635Zm19.237.781c.1.2.1.232-.007.394s-.1.183-.014.239a.774.774,0,0,0,.675-.042c.141-.056.267-.091.288-.07s-.1.176-.26.352a3.337,3.337,0,0,0-.781,3.546c.274.7.542,1.07.887,1.217.148.063.647.218,1.1.345l.823.225-.113.253a3.372,3.372,0,0,0-.155.69l-.042.436-.739-.415c-1.084-.619-1.344-.57-1.963.345a2.248,2.248,0,0,1-.957.88,8.863,8.863,0,0,0-1.21,1.069,5.975,5.975,0,0,1-.971.873.353.353,0,0,1-.387-.345c0-.521-.626-1.942-.788-1.78-.049.049-.042.113.007.211.077.155.57,1.5.57,1.569,0,.028-.148-.035-.331-.134-.253-.127-.338-.218-.345-.345a4.837,4.837,0,0,0-.943-1.731,4.5,4.5,0,0,0-1.456-1c-.3-.084-.169.07.26.31a3.8,3.8,0,0,1,1.513,1.7,5.3,5.3,0,0,1,.359.753.673.673,0,0,1-.26-.077c-.218-.084-.324-.077-1.034.084l-.8.176-.605-.633a3.549,3.549,0,0,0-1.428-1.027c-.753-.359-.844-.429-1.147-.816l-.324-.429h.253c.218,0,.31.056.654.415a1.634,1.634,0,0,0,.851.556c.654.2,1.224.267,1.182.148a2.011,2.011,0,0,0-.7-.281,3.132,3.132,0,0,1-1.414-.675c-.12-.141-.113-.141.457-.183a4.737,4.737,0,0,0,1.921-.542c.31-.148.894-.415,1.3-.6a5.047,5.047,0,0,0,2.716-2.273,5.571,5.571,0,0,1,.457-.647c.028,0,.063.063.084.141.07.281.563.267.683-.021.049-.12.063-.07.077.232.021.647.07.809.288.83.331.042.373-.148.359-1.654l-.007-1.344.3-.324a4.947,4.947,0,0,0,.605-.908l.3-.577.049.331A2.258,2.258,0,0,0,28.4-469.854Zm-16.648,1.309c.352.471.352.478.2.577a3.242,3.242,0,0,0-.345.274c-.106.1-.211.169-.225.148a4.771,4.771,0,0,1-.056-1.471A2.2,2.2,0,0,1,11.749-468.546Zm-1.1.95.345.4-.394.141a1.1,1.1,0,0,1-.443.113,1.388,1.388,0,0,1-.106-.507c-.028-.26-.063-.591-.084-.725l-.035-.246.183.211C10.215-468.1,10.454-467.814,10.644-467.6Zm-1.471.288c.169.239.331.478.359.521.042.063-.07.148-.345.267-.218.1-.408.176-.422.176a5.256,5.256,0,0,1-.028-.746c0-.443.028-.725.063-.7A2.875,2.875,0,0,1,9.173-467.307Zm-1.21.514a5.093,5.093,0,0,1,.422.612,2.6,2.6,0,0,1-.816.4c-.042,0-.07-.288-.07-.809a6.228,6.228,0,0,1,.021-.781C7.534-467.357,7.738-467.1,7.963-466.794Zm3.652.084c.056.113.007.155-.4.331-.26.113-.936.429-1.506.718s-1.077.514-1.119.514a.812.812,0,0,1-.345-.359,14.093,14.093,0,0,1,2.252-1.013c.331-.105.661-.211.739-.246C11.453-466.857,11.537-466.843,11.615-466.709Zm-5.024.612a4.22,4.22,0,0,1,.38.619c-.014.014-.2.12-.422.246l-.394.218-.014-.844a6.767,6.767,0,0,1,.014-.837A6.332,6.332,0,0,1,6.591-466.1Zm-1.062.781a1.442,1.442,0,0,1,.253.415c0,.091-.5.246-.781.246-.148,0-.155-.021-.113-.478.028-.26.049-.612.049-.788v-.317l.169.3A6.541,6.541,0,0,0,5.528-465.316Zm-1.365.542.134.218-.331.127a2.707,2.707,0,0,1-.38.127,7.966,7.966,0,0,1-.007-1.787c.028-.021.141.211.246.521A5.786,5.786,0,0,0,4.163-464.774Zm-1.316.2a4.946,4.946,0,0,1,.19.507,1.454,1.454,0,0,1-.535.281c-.141.042-.148.021-.162-.9a8.378,8.378,0,0,1,.035-1.14c.042-.176.063-.134.169.288A7.656,7.656,0,0,0,2.848-464.57Zm27.455-.253c1.02.352,1.168.443,1.034.64-.042.07-.281.035-1.034-.162a8.359,8.359,0,0,1-1.14-.359,2.064,2.064,0,0,1-.514-.746c0-.028.134.021.3.106S29.719-465.02,30.3-464.823Zm-22.227-.359c.063.1.106.19.091.2s-.267.113-.556.225-.774.317-1.07.464a8.308,8.308,0,0,1-1.858.626c-.063,0-.1-.077-.1-.2,0-.2.021-.211.373-.253a5.3,5.3,0,0,0,1.984-.76,7.173,7.173,0,0,1,.929-.471C7.921-465.358,8.012-465.281,8.076-465.182Zm-3.821,1.421c-.028.19-.077.239-.366.338a8.983,8.983,0,0,1-1.2.211c-.485.063-1.013.134-1.182.169s-.317.035-.338,0c-.035-.063.2-.106.872-.162a3.982,3.982,0,0,0,1.231-.387,5.233,5.233,0,0,1,1.006-.4A1.578,1.578,0,0,1,4.255-463.761Zm12.039,1.506c.042.7.028.8-.077.929a10.515,10.515,0,0,1-1.344,1,24.483,24.483,0,0,1,1-2.653.48.48,0,0,1,.225-.056C16.238-463.036,16.245-462.987,16.294-462.255Zm15.48.471a1,1,0,0,1-.3-.155c-.3-.19-.387-.415-.317-.851l.042-.253.3.619A4,4,0,0,1,31.774-461.784Zm-12.363.6a5.71,5.71,0,0,1,.957.725l.521.5-.38.12a.834.834,0,0,0-.514.338l-.127.211-.19-.324a3.632,3.632,0,0,1-.31-.732,3.72,3.72,0,0,0-.324-.739c-.106-.183-.162-.331-.127-.331A4.845,4.845,0,0,1,19.411-461.186Z" transform="translate(0 -24.08)"/>
      <path id="Path_6" data-name="Path 6" d="M92.866-431.6a2.291,2.291,0,0,1,.183.563q.074.443.211.232a1.114,1.114,0,0,0-.225-.844C92.8-431.939,92.711-431.911,92.866-431.6Z" transform="translate(-85.965 -74.394)"/>
      <path id="Path_7" data-name="Path 7" d="M88.229-429.612a4.409,4.409,0,0,1,.042.774c-.021.563.063.711.19.366a1.561,1.561,0,0,0-.07-1.084C88.215-429.894,88.145-429.915,88.229-429.612Z" transform="translate(-81.695 -76.277)"/>
      <path id="Path_8" data-name="Path 8" d="M81.243-427.916c.049.134.169.556.218.774.056.281.176.239.176-.056,0-.253-.253-.8-.373-.8C81.229-428,81.222-427.958,81.243-427.916Z" transform="translate(-75.222 -77.973)"/>
      <path id="Path_9" data-name="Path 9" d="M63.525-425.894a.56.56,0,0,0,.267.106.509.509,0,0,1,.408.436,2.433,2.433,0,0,1-.7,1.252c-.415.4-.443.507-.127.415a1.933,1.933,0,0,0,1.091-1.464c.035-.338.028-.366-.211-.605A.622.622,0,0,0,63.7-426C63.413-425.993,63.4-425.986,63.525-425.894Z" transform="translate(-58.419 -79.833)"/>
      <path id="Path_10" data-name="Path 10" d="M36.943-418.743a4.938,4.938,0,0,0-.915.753c-.739.725-.922,1.077-.711,1.4.331.5,1.6-.113,2.216-1.077a2.167,2.167,0,0,0,.253-.528c.063-.253-.077-.591-.267-.64C37.295-418.891,37.252-418.884,36.943-418.743Z" transform="translate(-32.463 -86.463)"/>
      <path id="Path_11" data-name="Path 11" d="M200.387-414.331c-.148.148-.1.26.127.288.162.021.19,0,.19-.148C200.7-414.409,200.534-414.479,200.387-414.331Z" transform="translate(-185.915 -90.608)"/>
      <path id="Path_12" data-name="Path 12" d="M212.075-408.893c-.19.19-.042.478.246.478a.281.281,0,0,0,.232-.422A.319.319,0,0,0,212.075-408.893Z" transform="translate(-196.78 -95.659)"/>
      <path id="Path_13" data-name="Path 13" d="M67.555-405.693a4.939,4.939,0,0,1-.577.732,1.8,1.8,0,0,0-.4.507c.077.077.563-.218.767-.457a2.33,2.33,0,0,0,.478-.992C67.759-406,67.689-405.947,67.555-405.693Z" transform="translate(-61.598 -98.472)"/>
      <path id="Path_14" data-name="Path 14" d="M312.967-331.076a1.827,1.827,0,0,0-.084.485c-.035.331-.077.429-.176.457a.188.188,0,0,0-.134.176.159.159,0,0,1-.155.169c-.162.021-.162.035-.2,1.428-.028.774-.07,1.6-.1,1.844-.049.387-.042.443.07.485.2.084.345-.07.457-.507l.105-.415.035.317c.035.31.042.317.274.317s.246-.014.331-.352c.056-.246.084-.3.091-.162a.33.33,0,0,0,.084.239c.331.2.2-1.126-.232-2.392a2.683,2.683,0,0,1-.246-1.5C313.129-331.076,313.087-331.273,312.967-331.076Zm.359,3.4c-.021.049-.035.014-.035-.084s.014-.134.035-.091A.372.372,0,0,1,313.326-327.678Zm.07.528c-.021.07-.035.014-.035-.12s.014-.19.035-.127A.723.723,0,0,1,313.4-327.15Z" transform="translate(-289.834 -168.009)"/>
      <path id="Path_15" data-name="Path 15" d="M280.176-295.71a.6.6,0,0,0-.176.239.593.593,0,0,0,.352.5.3.3,0,0,0,.408-.049.429.429,0,0,0,.042-.718C280.556-295.928,280.387-295.928,280.176-295.71Z" transform="translate(-260.005 -200.799)"/>
      <path id="Path_16" data-name="Path 16" d="M265.209-283.819c-.218.218-.084.528.281.668.45.169.7-.274.338-.605C265.61-283.959,265.363-283.98,265.209-283.819Z" transform="translate(-246.157 -211.91)"/>
      <path id="Path_17" data-name="Path 17" d="M292.212-278.833a.357.357,0,0,0,.007.528.357.357,0,0,0,.528-.007c.148-.162.148-.288.007-.493A.336.336,0,0,0,292.212-278.833Z" transform="translate(-271.253 -216.53)"/>
      <path id="Path_18" data-name="Path 18" d="M291.265-244.922a.232.232,0,0,0,.049.317.318.318,0,0,0,.535-.345A.337.337,0,0,0,291.265-244.922Z" transform="translate(-270.44 -247.999)"/>
      <path id="Path_19" data-name="Path 19" d="M283.877-239.954c-.155.148,0,.443.232.443.127,0,.225-.281.134-.394A.277.277,0,0,0,283.877-239.954Z" transform="translate(-263.551 -252.742)"/>
      <path id="Path_20" data-name="Path 20" d="M258.559-236.746a.546.546,0,0,0-.113.781.525.525,0,0,0,.915-.408A.464.464,0,0,0,258.559-236.746Z" transform="translate(-239.859 -255.633)"/>
      <path id="Path_21" data-name="Path 21" d="M301.116-236.724c-.218.218.035.683.331.584a.4.4,0,0,0,.169-.521A.372.372,0,0,0,301.116-236.724Z" transform="translate(-279.559 -255.726)"/>
      <path id="Path_22" data-name="Path 22" d="M237.047-233.849c-.457.422-.436.971.049,1.119a.627.627,0,0,0,.809-.338.754.754,0,0,0-.042-.788C237.674-234.166,237.392-234.166,237.047-233.849Z" transform="translate(-219.768 -258.242)"/>
      <path id="Path_23" data-name="Path 23" d="M215.124-229.834c-.056.148-.056.141.07.267s.2.141.338,0a.179.179,0,0,0,.042-.246C215.483-229.975,215.187-229.989,215.124-229.834Z" transform="translate(-199.66 -262.095)"/>
      <path id="Path_24" data-name="Path 24" d="M272.314-221.859a.232.232,0,0,0-.049.317.322.322,0,0,0,.478.19.348.348,0,0,0-.2-.647A.406.406,0,0,0,272.314-221.859Z" transform="translate(-252.777 -269.479)"/>
      <path id="Path_25" data-name="Path 25" d="M218.084-219.721a.649.649,0,0,0-.077.872.57.57,0,0,0,.88-.317.812.812,0,0,0-.232-.69C218.443-219.967,218.3-219.939,218.084-219.721Z" transform="translate(-202.248 -271.413)"/>
      <path id="Path_26" data-name="Path 26" d="M256.289-212.221a.344.344,0,0,0-.134.507.579.579,0,0,0,.619.014C257.056-211.981,256.662-212.411,256.289-212.221Zm.288.288a.108.108,0,0,1-.106.106.108.108,0,0,1-.106-.106.108.108,0,0,1,.106-.106A.108.108,0,0,1,256.578-211.932Z" transform="translate(-237.779 -278.526)"/>
      <path id="Path_27" data-name="Path 27" d="M190.666-211.981c-.148.19-.162.359-.049.486a.4.4,0,0,0,.633-.042c.106-.162.106-.19,0-.352C191.123-212.08,190.785-212.136,190.666-211.981Zm.4.267c0,.106-.049.141-.176.141-.169,0-.239-.127-.127-.232S191.067-211.855,191.067-211.714Z" transform="translate(-176.841 -278.71)"/>
      <path id="Path_28" data-name="Path 28" d="M241.262-210.916a.506.506,0,0,0-.106.711c.274.274.739.021.739-.4C241.9-210.986,241.649-211.113,241.262-210.916Z" transform="translate(-223.8 -279.697)"/>
      <path id="Path_29" data-name="Path 29" d="M318-173.847a6.082,6.082,0,0,0,.661.359,5.6,5.6,0,0,1,1.822,1.442c.253.324.471.443.471.267a3.242,3.242,0,0,0-.936-1.091C319.407-173.334,318-174.016,318-173.847Z" transform="translate(-295.331 -314.219)"/>
      <path id="Path_30" data-name="Path 30" d="M331-157.905a9.05,9.05,0,0,0,1,1.478c.134,0,.021-.253-.38-.851S331-158.1,331-157.905Z" transform="translate(-307.417 -329)"/>
      <path id="Path_31" data-name="Path 31" d="M289.49-150.984a8.081,8.081,0,0,1,1.112.788c.521.464.626.366.155-.141a2.823,2.823,0,0,0-.936-.626C288.884-151.407,288.744-151.414,289.49-150.984Z" transform="translate(-268.383 -335.203)"/>
      <path id="Path_32" data-name="Path 32" d="M15.057-293.856c-.091.042-.162.1-.162.127a4.216,4.216,0,0,1-.387.493c-.478.549-.493.718-.1.915.7.366,1.3.232,1.555-.331C16.31-293.434,15.74-294.187,15.057-293.856Zm.528.239c.2.134.2.246,0,.436a3.36,3.36,0,0,1-1.02.507c-.324,0,.471-1.006.823-1.048A.479.479,0,0,1,15.585-293.617Zm.084.8c0,.176-.288.352-.577.352h-.3l.387-.2C15.62-292.9,15.669-292.913,15.669-292.815Z" transform="translate(-12.843 -202.604)"/>
      <path id="Path_33" data-name="Path 33" d="M76.181-118.667a2.451,2.451,0,0,0-.668.408c-.141.127-.394.345-.57.471-.929.69-1.034.943-.563,1.365a6.067,6.067,0,0,0,1.893.957c.281,0,.605-.4,1.027-1.267.535-1.112.5-1.689-.127-1.977C76.794-118.878,76.681-118.878,76.181-118.667Zm.978.366c.267.267.218.612-.2,1.379l-.324.6-.267-.1a2.006,2.006,0,0,1-.971-.774,1.124,1.124,0,0,1,.352-.858,2.067,2.067,0,0,1,1-.429A.558.558,0,0,1,77.159-118.3Zm-2.062.95c-.042.4.5,1.013,1.077,1.217.253.084.26.091.127.169s-.274.007-.943-.331c-.971-.486-1.027-.6-.549-1.013.169-.148.31-.267.31-.267A1.456,1.456,0,0,1,75.1-117.351Z" transform="translate(-68.598 -365.388)"/>
      <path id="Path_34" data-name="Path 34" d="M132.28-116.775a17.646,17.646,0,0,0-2.28,5.326.579.579,0,0,0,.521.605c.486.091,1.865-.38,4.215-1.442,1.07-.485,1.245-.64,1.245-1.069s-.141-.661-.8-1.407c-.324-.373-.7-.816-.816-.985A4.184,4.184,0,0,0,132.7-117,.857.857,0,0,0,132.28-116.775Zm.359.317a25.111,25.111,0,0,0-.985,2.85c-.063.225-.2.64-.317.929a2.381,2.381,0,0,0-.211.915c0,.359-.014.394-.176.436-.626.155-.528-.443.493-2.885.668-1.611,1.1-2.435,1.281-2.435C132.744-116.648,132.7-116.564,132.639-116.458Zm.908.317a5.149,5.149,0,0,1,.654.83,7.44,7.44,0,0,0,.725.95c.584.647.732.9.675,1.133-.056.211-.288.331-1.78.915-1.921.746-2.357.894-2.427.788-.113-.176-.12-.134.647-2.238.162-.443.422-1.224.57-1.724.345-1.14.324-1.091.422-1.091A2.457,2.457,0,0,1,133.546-116.142Z" transform="translate(-120.559 -367.091)"/>
      <path id="Path_35" data-name="Path 35" d="M290.419-90.275c-.3.077-.577.3-1.956,1.6C286.049-86.4,286-86.349,286-86.1a1.821,1.821,0,0,0,.675,1.034,5.606,5.606,0,0,0,3.138,1.055,7.839,7.839,0,0,0,2.005-.042c1.555-.162,1.836-.225,2.076-.464.26-.267.26-.64-.014-1.646a8.777,8.777,0,0,1-.246-1.3c-.077-.978-.106-1.006-.894-.816-.478.12-.493.12-.676-.014a2.35,2.35,0,0,1-.654-1.133C291.172-90.142,290.876-90.395,290.419-90.275Zm.415.5a3.536,3.536,0,0,1,.267.584c.281.725.429.992.64,1.154a1.091,1.091,0,0,0,1.027.183,1.269,1.269,0,0,1,.408-.07,1.718,1.718,0,0,1,.091.542,6.6,6.6,0,0,0,.211,1.091l.169.584-.429.239a1.336,1.336,0,0,1-1.288.211,7.61,7.61,0,0,0-1.851-.134,6.867,6.867,0,0,1-2.146-.2,4.375,4.375,0,0,1-1.513-.619c0-.113,3.237-3.173,3.6-3.406C290.412-89.867,290.714-89.924,290.834-89.776Zm-3.525,4.348a8.793,8.793,0,0,0,3.054.507c2.6.12,2.512.127,3.152-.3l.225-.155v.253a.363.363,0,0,1-.155.352,8.8,8.8,0,0,1-1.562.253,8.23,8.23,0,0,1-3.42-.155,3.486,3.486,0,0,1-2.125-1.2c-.063-.12-.021-.106.169.063A2.474,2.474,0,0,0,287.309-85.427Z" transform="translate(-265.583 -391.909)"/>
      <path id="Path_36" data-name="Path 36" d="M423.678-90.7c-.289.281-.324.366-.6,1.323a14.109,14.109,0,0,0-.591,3.328c.07.457.225.5,1.154.331.9-.162,1-.218,1.231-.739a3.917,3.917,0,0,0-.028-3.729c-.19-.422-.556-.809-.753-.809A1.218,1.218,0,0,0,423.678-90.7Zm.528.823a2.749,2.749,0,0,1,.2,1.358,2.385,2.385,0,0,1-.6,1.646c-.232.218-.858.549-.922.485a14.143,14.143,0,0,1,.584-3.455c.1-.345.338-.732.45-.732A3.371,3.371,0,0,1,424.205-89.881Zm.542.288a2.749,2.749,0,0,1,.2,1.231,2.429,2.429,0,0,1-.274,1.337,6.77,6.77,0,0,1-.317.683,1.5,1.5,0,0,1-.464.134c-.232.035-.486.084-.563.106s0-.049.176-.155a2.014,2.014,0,0,0,1.091-1.52,3.793,3.793,0,0,0-.246-2.47l-.148-.3.176.211A3.077,3.077,0,0,1,424.747-89.593Z" transform="translate(-392.46 -391.261)"/>
    </g>
  </g>
</svg>
